<svg xmlns="http://www.w3.org/2000/svg" width="208.642" height="204.789" viewBox="0 0 208.642 204.789">
  <g id="Group_4" data-name="Group 4" transform="translate(-642 -436.426)">
    <path id="Path_1" data-name="Path 1" d="M208.642,148q0,9.361-4.9,15.6-2.553,3.218-10.642,8-6.173,3.609-12.238,7.217Q161.814,191.594,155.75,195.1q-13.624,7.7-22.03,7.7-6.28,0-10-6.046-3.513-5.655-3.512-14.237,0-4,2.234-13.263,2.767-11.8,6.7-17.163.639-.1.639.975,0,.783-2.342,9.752a61.313,61.313,0,0,0-2.341,14.92,13.121,13.121,0,0,0,2.66,8.24,8.034,8.034,0,0,0,6.6,3.462q10,0,35.758-15.7,5.959-3.412,26.074-15.9a39.911,39.911,0,0,0,6.682-5.049,2.481,2.481,0,0,0,.878-1.956,2.867,2.867,0,0,0-.331-.934,17.776,17.776,0,0,0-8.081-7.761q-10.962-5.362-22.029-10.727-7.878-4.095-17.134-13.555-7.663-7.8-9.472-7.8a1.821,1.821,0,0,0-1.277.488q0-.1.638-3.706a38.049,38.049,0,0,0,.426-8.289q-.106-4,.426-4a20.435,20.435,0,0,1,3.511,2.731q1.809,1.56,10.537,5.168,7.767,3.122,7.769,4.1,0,.585-2.236.78t-7.023.877q7.447,6.633,22.561,13.36,16.176,7.218,18.092,8.582Q208.64,136.3,208.642,148" transform="translate(642 427)" fill="#013e4b"/>
    <path id="Path_2" data-name="Path 2" d="M145.426,142.755q.494,5.443.5,10.557,0,18.069-4.823,26.013-1.856,3.047-2.72,3.047-1.362,0-.372-6.965a72.131,72.131,0,0,0,.124-18.394q-4.451-31.127-12.365-93.6-.992-11.428-3.339-32.979a52.447,52.447,0,0,0-3.338-6.422q-.742-1.2,3.957-13.822c.164-.506.411-.762.742-.762q1.233,0,3.462,4.68,3.831,7.184,7.543,14.367,5.935,11.1,5.935,13.823c0,.581-.247.87-.742.87a3.866,3.866,0,0,1-1.607-.652,56.22,56.22,0,0,1-6.554-5.225q-.249,3.048,5.07,40.053,6.428,44.08,8.532,65.413" transform="translate(642 427)" fill="#013e4b"/>
    <path id="Path_3" data-name="Path 3" d="M135.87,141.363a79.893,79.893,0,0,0-13.187,10.7q-14.5,16.251-29.092,32.5-16.238,17.458-27.449,17.568-7.734,0-8.312-11.968-.774-16.14,9.859-40.077a12.3,12.3,0,0,0,1.353-4.172c0-.511-.162-.769-.484-.769q-1.644,0-3.092,2.965-11.7,23.827-11.7,43.481a24.164,24.164,0,0,0,5.606,16.03q5.6,6.7,13.531,6.588,8.214-.111,21.843-15.482,25.128-28.548,32.185-35.025c3.882-3.582,7.19-6.62,10.7-8.754-.357-3.636-.927-8.4-1.769-13.589" transform="translate(642 427)" fill="#013e4b"/>
    <path id="Path_4" data-name="Path 4" d="M167.239,138.4a15.944,15.944,0,0,0-11.018-3.788c-3.412,0-6.6.956-10.183,2.215.276,4.008.7,9.659.687,14.51a18.846,18.846,0,0,1,5.63-.914q10.728,0,14.594,7.906.675,1.867,1.45,1.866,1.159,0,2.223-5.16a38.414,38.414,0,0,0,.87-7.137,12.187,12.187,0,0,0-4.253-9.5" transform="translate(642 427)" fill="#013e4b"/>
    <path id="Path_5" data-name="Path 5" d="M54.575,177.99c-.655.3-1.056.415-1.717.7q-14.081,6.16-24.421,5.94A25.517,25.517,0,0,1,12.669,178.4,23.162,23.162,0,0,1,5.328,167.6c-1.42-4.565-.691-8.623.2-13.166,1.274-6.47,2.413-12.97,3.618-19.454q-.954.294-1.833,2.054a72.864,72.864,0,0,0-3.96,8.58c-4.181,12.971-5.921,28.536,3.666,39.529q8.507,9.752,22.735,9.753c7.5,0,14.969-2.119,23.531-6.174.179-2.927.816-7.125,1.287-10.735" transform="translate(642 427)" fill="#013e4b"/>
    <path id="Path_6" data-name="Path 6" d="M112.178,116.395c0,.038.008.066.008.107a.5.5,0,0,0-.008-.107" transform="translate(642 427)" fill="#013e4b"/>
    <path id="Path_7" data-name="Path 7" d="M126.671,117.236q-.918-3.372-1.8-3.373a.618.618,0,0,0-.513.366,41.69,41.69,0,0,0-2.714,7.994,6.293,6.293,0,0,0,.88,2.567,6.336,6.336,0,0,1,.881,2.42q0,1.98-5.281,1.98a7.571,7.571,0,0,1-4.62-1.173,22.98,22.98,0,0,1-3.007-3.3q1.572-8.747,1.679-8.32c-.021-.459-.161-.7-.432-.7a1.229,1.229,0,0,0-.367.073q-1.759.515-4.767,7.481-4.839,11.294-13.64,11.294a20.6,20.6,0,0,1-8.14-1.907q-2.934-5.061-4.254-7.407a1.044,1.044,0,0,0-1.027-.22q-.66.147-.66.66a30.232,30.232,0,0,1-.806,5.72,8.473,8.473,0,0,0-.22,2.347q1.832,4.4,3.667,8.8c1.437,3.449,4.437,9.454,3.413,13.283-.56,2.1-2.676,3.083-4.142,4.462-2.141,2.014-4.379,3.936-6.666,5.782s-4.642,3.6-7.08,5.236q-1.908,1.279-3.88,2.457c-.5.3-3.641,1.637-3.718,2.082a89.609,89.609,0,0,0-1.266,10.795c1.122-.6,2.1-1.183,3.244-1.855q14.813-8.8,22.881-19.141,3.887-4.987,3.887-15.547,0-1.247-.587-5.94a11.162,11.162,0,0,0,5.061,1.173q6.966,0,11.073-6.234,2.346-3.96,3.374-6.087,3.227,4.035,3.52,4.254a8.347,8.347,0,0,0,5.94,2.273q11,0,11-15.767a24.869,24.869,0,0,0-.917-6.527" transform="translate(642 427)" fill="#013e4b"/>
    <path id="Path_9" data-name="Path 9" d="M170,62.48c-5.809,2.314-11.712,4.345-17.426,6.186l-.094-.094.708-3.259c6.611-2.219,13.506-4.533,18.607-6.517l.094.142Z" transform="translate(642 427)" fill="#013e4b"/>
    <path id="Path_10" data-name="Path 10" d="M69.258,88.953c0-9.026,6.044-12.491,9.428-12.491,3.707,0,9.912,2.982,9.912,12.733,0,7.656-6.93,10.476-10.073,10.476-6.125,0-9.267-5.157-9.267-10.718m8.3-6.205c-2.1,0-5.48,1.773-5.48,5.077,0,2.418,1.934,5.48,6.689,5.48,4.19,0,7.253-3.143,7.253-4.11,0-.806-2.821-6.447-8.462-6.447" transform="translate(642 427)" fill="#013e4b"/>
  </g>
</svg>
