<?xml version="1.0" standalone="no"?>
<!DOCTYPE svg PUBLIC "-//W3C//DTD SVG 20010904//EN"
 "http://www.w3.org/TR/2001/REC-SVG-20010904/DTD/svg10.dtd">
<svg version="1.0" xmlns="http://www.w3.org/2000/svg"
 width="121.000000pt" height="121.000000pt" viewBox="0 0 121.000000 121.000000"
 preserveAspectRatio="xMidYMid meet">
<metadata>
Created by potrace 1.14, written by Peter Selinger 2001-2017
</metadata>
<g transform="translate(0.000000,121.000000) scale(0.100000,-0.100000)"
fill="#000000" stroke="none">
<path d="M701 1160 c-7 -25 -8 -46 -3 -57 9 -16 12 -41 28 -183 3 -25 10 -81
15 -125 6 -44 13 -98 15 -120 2 -22 6 -53 9 -70 3 -16 7 -50 10 -75 3 -25 8
-57 11 -71 4 -21 -2 -30 -36 -54 -22 -16 -44 -34 -48 -41 -8 -14 -155 -175
-197 -217 -39 -37 -110 -70 -135 -62 -19 6 -25 19 -34 77 -3 18 -1 25 8 22 15
-6 102 57 135 99 17 20 26 46 29 82 4 48 6 52 28 47 18 -3 33 5 58 31 33 35
34 35 51 17 35 -39 95 4 95 69 0 42 -16 75 -24 51 -3 -8 -6 -28 -8 -45 -3 -33
-23 -40 -50 -17 -12 10 -16 23 -12 38 9 36 -3 29 -26 -15 -23 -47 -51 -69 -82
-65 -13 1 -28 3 -33 3 -6 1 -18 13 -27 28 l-16 28 -7 -26 c-4 -15 2 -43 14
-73 28 -65 26 -88 -10 -120 -38 -34 -99 -76 -110 -76 -5 0 5 37 21 82 16 45
28 83 26 86 -7 6 -42 -67 -61 -130 -17 -51 -22 -58 -59 -72 -39 -15 -91 -21
-143 -18 -12 1 -41 20 -64 42 l-42 40 6 62 c3 35 8 79 11 98 5 35 5 35 -17
-10 -14 -30 -22 -67 -24 -111 -1 -58 2 -73 25 -108 14 -22 42 -49 62 -58 48
-24 137 -22 189 4 22 11 38 16 35 11 -11 -18 7 -77 32 -107 44 -53 99 -49 164
11 14 13 63 65 109 116 46 51 85 91 86 90 2 -2 0 -22 -4 -45 -9 -47 8 -110 36
-130 46 -34 118 -5 326 131 125 81 147 108 147 177 0 60 -27 86 -147 145 -117
57 -153 84 -114 84 36 0 23 14 -38 42 l-59 26 -4 -44 c-2 -24 1 -44 6 -44 4 0
33 -23 64 -51 32 -29 96 -71 152 -99 97 -49 120 -71 100 -95 -29 -35 -326
-200 -370 -206 -56 -6 -82 33 -70 103 8 40 53 98 66 85 4 -4 7 -39 6 -79 -1
-61 0 -70 12 -57 16 16 32 88 32 140 -1 32 1 35 24 32 57 -9 70 -14 89 -35 16
-16 22 -18 26 -7 20 54 3 112 -37 125 -28 9 -79 5 -95 -8 -8 -7 -13 6 -18 49
-4 32 -8 69 -10 83 -2 14 -7 48 -10 75 -4 28 -8 57 -10 65 -2 8 -7 42 -11 75
-3 33 -8 62 -9 65 -2 3 -6 37 -10 75 -4 39 -9 73 -12 78 -2 4 0 7 6 7 5 0 13
-4 16 -10 3 -5 13 -10 21 -10 10 0 2 25 -31 89 -24 49 -48 92 -53 95 -5 3 -14
-12 -21 -34z"/>
<path d="M955 899 c-11 -5 -33 -13 -49 -19 -16 -6 -26 -13 -23 -16 8 -8 86 17
98 33 13 15 3 16 -26 2z"/>
<path d="M425 796 c-27 -20 -27 -90 0 -110 20 -14 68 -5 81 16 12 20 5 70 -12
89 -20 23 -43 24 -69 5z m65 -46 c8 -15 6 -21 -10 -30 -34 -18 -78 18 -53 43
14 14 53 6 63 -13z"/>
<path d="M628 66 c-20 -6 -43 -17 -50 -25 -11 -11 -9 -12 12 -6 41 12 90 34
90 39 0 8 -7 6 -52 -8z"/>
</g>
</svg>
